<?xml version="1.0" encoding="UTF-8" standalone="no"?>
<!-- Created with Inkscape (http://www.inkscape.org/) -->
<svg
   xmlns:dc="http://purl.org/dc/elements/1.1/"
   xmlns:cc="http://creativecommons.org/ns#"
   xmlns:rdf="http://www.w3.org/1999/02/22-rdf-syntax-ns#"
   xmlns:svg="http://www.w3.org/2000/svg"
   xmlns="http://www.w3.org/2000/svg"
   xmlns:sodipodi="http://sodipodi.sourceforge.net/DTD/sodipodi-0.dtd"
   xmlns:inkscape="http://www.inkscape.org/namespaces/inkscape"
   width="160"
   height="160"
   id="svg2"
   sodipodi:version="0.32"
   inkscape:version="0.46"
   sodipodi:docname="splogo.svg"
   inkscape:output_extension="org.inkscape.output.svg.inkscape"
   version="1.0"
   inkscape:export-filename="/home/joshua/Desktop/Dev/Eclipsedevel/StickyPy/src/logo.png"
   inkscape:export-xdpi="5.6074767"
   inkscape:export-ydpi="5.6074767">
  <defs
     id="defs4">
    <inkscape:perspective
       sodipodi:type="inkscape:persp3d"
       inkscape:vp_x="0 : 526.18109 : 1"
       inkscape:vp_y="0 : 1000 : 0"
       inkscape:vp_z="744.09448 : 526.18109 : 1"
       inkscape:persp3d-origin="372.04724 : 350.78739 : 1"
       id="perspective10" />
  </defs>
  <sodipodi:namedview
     id="base"
     pagecolor="#ffffff"
     bordercolor="#666666"
     borderopacity="1.0"
     gridtolerance="10000"
     guidetolerance="10"
     objecttolerance="10"
     inkscape:pageopacity="0.0"
     inkscape:pageshadow="2"
     inkscape:zoom="2.8"
     inkscape:cx="110.85179"
     inkscape:cy="54.465324"
     inkscape:document-units="px"
     inkscape:current-layer="layer1"
     showgrid="true"
     inkscape:window-width="1680"
     inkscape:window-height="980"
     inkscape:window-x="-3"
     inkscape:window-y="-3">
    <inkscape:grid
       type="xygrid"
       id="grid2383"
       dotted="true"
       visible="true"
       enabled="true" />
  </sodipodi:namedview>
  <metadata
     id="metadata7">
    <rdf:RDF>
      <cc:Work
         rdf:about="">
        <dc:format>image/svg+xml</dc:format>
        <dc:type
           rdf:resource="http://purl.org/dc/dcmitype/StillImage" />
      </cc:Work>
    </rdf:RDF>
  </metadata>
  <g
     inkscape:label="Layer 1"
     inkscape:groupmode="layer"
     id="layer1"
     transform="translate(-80,-52.362183)">
    <path
       style="fill:#ff7f00;fill-opacity:1;fill-rule:evenodd;stroke:none;stroke-width:1px;stroke-linecap:butt;stroke-linejoin:miter;stroke-opacity:1"
       d="M 120,52.362183 C 80,52.362183 80,52.362183 80,92.362183 C 80,132.36218 80,212.36218 80,212.36218 L 120,212.36218 C 120,212.36218 120,112.36218 120,102.36218 C 120,92.362189 120,92.362189 130,92.362189 C 140,92.362189 180,92.362183 190,92.362183 C 200,92.362183 200,92.362183 200,102.36218 C 200,112.36218 200,152.36218 200,162.36218 C 200,172.36218 200,172.36218 190,172.36218 C 180,172.36218 130,172.36218 130,172.36218 L 130,212.36218 C 130,212.36218 160,212.36218 200,212.36218 C 240,212.36218 240,212.51025 240,172.36218 L 240,92.362183 C 240,52.362183 240,52.362183 200,52.362183 C 160,52.362183 160,52.362183 120,52.362183 z"
       id="path2385"
       sodipodi:nodetypes="czcczzzzzzcczzzzz" />
    <path
       style="fill:#ff0000;fill-opacity:1;fill-rule:evenodd;stroke:none;stroke-width:1px;stroke-linecap:butt;stroke-linejoin:miter;stroke-opacity:1"
       d="M 180,162.36218 C 170,162.36218 150,162.36218 140,162.36218 C 130,162.36218 130,152.36218 140,152.36218 C 150,152.36218 170,152.36218 175,152.36218 C 180,152.36218 180,152.36218 180,147.36218 C 180,142.36218 180,142.36218 175,142.36218 C 170,142.36218 150,142.36218 140,142.36218 C 130,142.36218 130,142.36218 130,132.36218 C 130,122.36218 130,132.36218 130,122.36218 C 130,112.36218 130,112.36218 140,112.36218 C 150,112.36218 180,112.36218 180,112.36218 C 180,112.36218 180,122.36218 180,112.36218 C 180,102.36218 190,102.36218 190,112.36218 C 190,122.36218 190,122.36218 180,122.36218 C 170,122.36218 150,122.36218 145,122.36218 C 140,122.36218 140,122.36218 140,127.36218 C 140,132.36218 140,132.36218 145,132.36218 C 150,132.36218 170,132.36218 180,132.36218 C 190,132.36218 190,134.86218 190,142.36218 C 190,149.86218 190,148.61218 190,152.36218 C 190,162.36218 190,162.36218 180,162.36218 z"
       id="path3157"
       sodipodi:nodetypes="czzzzzzzzzczczzzzzzsz" />
  </g>
</svg>
