<?xml version="1.0" encoding="UTF-8" standalone="no"?>
<!-- Created with Inkscape (http://www.inkscape.org/) -->

<svg
   xmlns:dc="http://purl.org/dc/elements/1.1/"
   xmlns:cc="http://creativecommons.org/ns#"
   xmlns:rdf="http://www.w3.org/1999/02/22-rdf-syntax-ns#"
   xmlns:svg="http://www.w3.org/2000/svg"
   xmlns="http://www.w3.org/2000/svg"
   xmlns:sodipodi="http://sodipodi.sourceforge.net/DTD/sodipodi-0.dtd"
   xmlns:inkscape="http://www.inkscape.org/namespaces/inkscape"
   width="744.09448819"
   height="1052.3622047"
   id="svg2"
   version="1.1"
   inkscape:version="0.48.4 r9939"
   sodipodi:docname="New document 1">
  <defs
     id="defs4" />
  <sodipodi:namedview
     id="base"
     pagecolor="#ffffff"
     bordercolor="#666666"
     borderopacity="1.0"
     inkscape:pageopacity="0.0"
     inkscape:pageshadow="2"
     inkscape:zoom="2.8"
     inkscape:cx="285.96659"
     inkscape:cy="532.84816"
     inkscape:document-units="px"
     inkscape:current-layer="layer1"
     showgrid="false"
     showguides="true"
     inkscape:guide-bbox="true"
     inkscape:window-width="1920"
     inkscape:window-height="1018"
     inkscape:window-x="1272"
     inkscape:window-y="-8"
     inkscape:window-maximized="1">
    <sodipodi:guide
       orientation="0,1"
       position="192.85714,452.14286"
       id="guide3816" />
  </sodipodi:namedview>
  <metadata
     id="metadata7">
    <rdf:RDF>
      <cc:Work
         rdf:about="">
        <dc:format>image/svg+xml</dc:format>
        <dc:type
           rdf:resource="http://purl.org/dc/dcmitype/StillImage" />
        <dc:title></dc:title>
      </cc:Work>
    </rdf:RDF>
  </metadata>
  <g
     inkscape:label="Layer 1"
     inkscape:groupmode="layer"
     id="layer1">
    <path
       sodipodi:type="arc"
       style="fill:#ffffff;fill-opacity:0;stroke:#000000;stroke-width:4;stroke-miterlimit:4;stroke-opacity:1;stroke-dasharray:none"
       id="path2985"
       sodipodi:cx="280"
       sodipodi:cy="403.79074"
       sodipodi:rx="191.42857"
       sodipodi:ry="191.42857"
       d="m 471.42857,403.79074 a 191.42857,191.42857 0 1 1 -382.857144,-1e-5"
       sodipodi:start="0"
       sodipodi:end="3.1415927"
       sodipodi:open="true"
       transform="matrix(1,0,0,-1,-0.609681,1003.9578)" />
    <path
       sodipodi:type="arc"
       style="fill:#ffffff;fill-opacity:0;stroke:#000000;stroke-width:4;stroke-miterlimit:4;stroke-opacity:1;stroke-dasharray:none"
       id="path2985-1"
       sodipodi:cx="280"
       sodipodi:cy="403.79074"
       sodipodi:rx="173.57143"
       sodipodi:ry="173.57143"
       d="m 453.57143,403.79074 a 173.57143,173.57143 0 1 1 -347.14286,-1e-5"
       sodipodi:start="0"
       sodipodi:end="3.1415927"
       sodipodi:open="true"
       transform="matrix(1,0,0,-1,-1.2716636,1003.9361)" />
    <path
       sodipodi:type="arc"
       style="fill:#ffffff;fill-opacity:0;stroke:#000000;stroke-width:4;stroke-miterlimit:4;stroke-opacity:1;stroke-dasharray:none"
       id="path2985-1-4"
       sodipodi:cx="280"
       sodipodi:cy="403.79074"
       sodipodi:rx="155.71428"
       sodipodi:ry="155.71428"
       d="m 435.71428,403.79074 a 155.71428,155.71428 0 1 1 -311.42856,-1e-5"
       sodipodi:start="0"
       sodipodi:end="3.1415927"
       sodipodi:open="true"
       transform="matrix(1,0,0,-1,-0.53571403,1004.0101)" />
    <path
       sodipodi:type="arc"
       style="fill:#ffffff;fill-opacity:0;stroke:#000000;stroke-width:4;stroke-miterlimit:4;stroke-opacity:1;stroke-dasharray:none"
       id="path2985-1-4-0"
       sodipodi:cx="280"
       sodipodi:cy="403.79074"
       sodipodi:rx="136.42856"
       sodipodi:ry="136.42856"
       d="m 416.42856,403.79074 a 136.42856,136.42856 0 1 1 -272.85712,-1e-5"
       sodipodi:start="0"
       sodipodi:end="3.1415927"
       sodipodi:open="true"
       transform="matrix(1,0,0,-1,-0.53571422,1004.01)" />
    <path
       style="fill:none;stroke:#000000;stroke-width:1.52183187px;stroke-linecap:butt;stroke-linejoin:miter;stroke-opacity:1"
       d="m 87.100573,599.4617 57.376317,0"
       id="path3818"
       inkscape:connector-curvature="0" />
    <path
       style="fill:none;stroke:#000000;stroke-width:1.52915502px;stroke-linecap:butt;stroke-linejoin:miter;stroke-opacity:1"
       d="m 414.90242,599.43504 57.92985,0"
       id="path3818-9"
       inkscape:connector-curvature="0" />
    <path
       style="fill:#ff0000;fill-opacity:1;stroke:#ff0000;stroke-width:1.42857145999999990;stroke-miterlimit:4;stroke-opacity:1;stroke-dasharray:none"
       d="m 125.97769,596.8176 c 0.0982,-0.93304 0.27138,-3.8452 0.38483,-6.47148 0.11345,-2.62627 0.44599,-6.64413 0.73897,-8.92857 5.26971,-41.08933 26.09173,-77.51197 58.76068,-102.78637 19.04566,-14.73472 42.47829,-25.17709 66.00271,-29.41303 35.31618,-6.35923 71.28349,-0.39511 102.35171,16.97201 37.9834,21.2327 65.53656,58.05657 74.95963,100.18101 2.14097,9.5709 3.78317,22.45862 3.78858,29.73214 l 0.002,2.41071 -7.44453,0 -7.44454,0 -0.23197,-5.08928 c -1.79915,-39.47086 -20.57925,-76.30918 -51.64568,-101.30617 -19.14052,-15.40104 -42.06783,-25.41507 -66.26899,-28.9445 -15.22037,-2.2197 -32.73683,-1.82785 -47.32143,1.05861 -54.71788,10.82928 -97.95452,53.7713 -108.90538,108.16329 -1.49223,7.41175 -2.85591,19.32689 -2.8768,25.13591 l -0.004,0.98214 -7.5123,0 -7.5123,0 0.17856,-1.69642 0,0 z"
       id="path3840"
       inkscape:connector-curvature="0" />
    <path
       style="fill:#00ff00;fill-opacity:1;stroke:#00ff00;stroke-width:1.42857145999999990;stroke-miterlimit:4;stroke-opacity:1;stroke-dasharray:none;opacity:1"
       d="m 107.40855,595.92474 c 0.10231,-1.42411 0.28043,-4.59822 0.39581,-7.05357 0.48099,-10.23535 2.86951,-24.37752 5.91128,-35 8.09887,-28.28296 22.39469,-52.90494 42.78746,-73.69372 28.93992,-29.50192 66.72731,-47.25734 108.07063,-50.77991 26.38226,-2.24785 53.7904,1.92755 78.57143,11.96969 34.25828,13.88265 63.80911,39.24528 82.60416,70.89679 12.09855,20.37439 19.20588,40.37269 22.59304,63.57143 0.76606,5.24675 1.74671,16.64214 1.75955,20.44643 l 0.008,2.23214 -6.42857,0 -6.42857,0 -0.004,-2.94642 c -0.002,-1.62054 -0.16397,-4.875 -0.35987,-7.23215 -2.26983,-27.31106 -10.48887,-51.69353 -24.92045,-73.92857 -25.24871,-38.90122 -65.68844,-64.49278 -111.68029,-70.67487 -7.691,-1.0338 -14.98651,-1.38984 -24.37199,-1.18942 -16.85162,0.35986 -30.63734,2.71544 -46.3423,7.91854 -43.06644,14.26804 -77.65851,46.28387 -95.71711,88.58861 -3.61076,8.45869 -7.5774,21.62594 -9.41406,31.25 -1.44059,7.54861 -2.90454,21.40226 -2.90454,27.48619 0,0.70848 -0.19286,0.72809 -7.15775,0.72809 l -7.15775,0 0.18603,-2.58928 0,0 z"
       id="path3842"
       inkscape:connector-curvature="0" />
    <path
       style="fill:#0000ff;fill-opacity:1;stroke:#0000ff;stroke-width:1.42857145999999990;stroke-miterlimit:4;stroke-opacity:1;stroke-dasharray:none"
       d="m 90.267384,593.96045 c 0.753464,-14.92635 2.185381,-25.58509 5.040139,-37.51723 8.278327,-34.6012 25.384737,-65.07235 50.668307,-90.25395 18.63646,-18.56129 39.42017,-32.2293 63.77648,-41.9414 44.31624,-17.67114 94.96946,-17.67114 139.28571,0 56.99364,22.72626 99.60225,71.56391 114.07446,130.75125 3.14261,12.85237 4.65008,23.73041 5.39922,38.96133 l 0.22396,4.55357 -7.17025,0 -7.17025,0 0,-3.01626 c 0,-6.1475 -1.2201,-17.98963 -2.72496,-26.44802 -4.57789,-25.73109 -15.09665,-50.57123 -30.34088,-71.6503 -28.62223,-39.57763 -72.21026,-65.49228 -120.32701,-71.53874 -14.91107,-1.87376 -32.30813,-1.74752 -47.32143,0.34338 -28.51835,3.97174 -56.88162,15.71966 -80.2001,33.21846 -35.70366,26.79297 -59.67854,65.50487 -67.65773,109.24602 -1.40989,7.72885 -2.85646,22.20321 -2.85646,28.58166 l 0,1.2638 -6.464532,0 -6.464533,0 0.229859,-4.55357 z"
       id="path3844"
       inkscape:connector-curvature="0" />
  </g>
</svg>
