<?xml version="1.0" encoding="UTF-8" standalone="no"?>
<!-- Created with Inkscape (http://www.inkscape.org/) -->

<svg
   xmlns:dc="http://purl.org/dc/elements/1.1/"
   xmlns:cc="http://creativecommons.org/ns#"
   xmlns:rdf="http://www.w3.org/1999/02/22-rdf-syntax-ns#"
   xmlns:svg="http://www.w3.org/2000/svg"
   xmlns="http://www.w3.org/2000/svg"
   xmlns:sodipodi="http://sodipodi.sourceforge.net/DTD/sodipodi-0.dtd"
   xmlns:inkscape="http://www.inkscape.org/namespaces/inkscape"
   width="744.09448819"
   height="1052.3622047"
   id="svg2"
   version="1.1"
   inkscape:version="0.48.2 r9819"
   sodipodi:docname="1.svg">
  <defs
     id="defs4" />
  <sodipodi:namedview
     id="base"
     pagecolor="#ffffff"
     bordercolor="#666666"
     borderopacity="1.0"
     inkscape:pageopacity="0.0"
     inkscape:pageshadow="2"
     inkscape:zoom="0.49497475"
     inkscape:cx="273.34673"
     inkscape:cy="410.93533"
     inkscape:document-units="px"
     inkscape:current-layer="layer1"
     showgrid="false"
     inkscape:window-width="1313"
     inkscape:window-height="729"
     inkscape:window-x="0"
     inkscape:window-y="0"
     inkscape:window-maximized="0" />
  <metadata
     id="metadata7">
    <rdf:RDF>
      <cc:Work
         rdf:about="">
        <dc:format>image/svg+xml</dc:format>
        <dc:type
           rdf:resource="http://purl.org/dc/dcmitype/StillImage" />
        <dc:title></dc:title>
      </cc:Work>
    </rdf:RDF>
  </metadata>
  <g
     inkscape:label="Layer 1"
     inkscape:groupmode="layer"
     id="layer1">
    <path
       style="fill:none;stroke:#000000;stroke-width:5.00891113;stroke-linecap:butt;stroke-linejoin:miter;stroke-miterlimit:4;stroke-opacity:1;stroke-dasharray:none"
       d="m 660.52655,778.31436 c -3.79861,-0.95238 -7.53358,-2.21159 -11.39582,-2.85715 -4.68366,-0.78285 -9.49653,0 -14.24478,0 -10.44618,0 -20.89235,0 -31.33853,0 -10.44616,0 -20.89235,0 -31.33851,0 -5.69792,0 -11.47335,-0.93942 -17.09374,0 -2.96222,0.49512 -5.57398,2.43123 -8.54687,2.85715 -3.76042,0.53874 -7.63539,-0.53875 -11.39581,0 -2.97289,0.42591 -5.57399,2.43122 -8.54689,2.85714 -3.76041,0.53875 -7.62654,-0.47251 -11.39582,0 -3.88527,0.48706 -7.51965,2.30181 -11.39582,2.85714 -9.30659,1.33334 -19.18297,-1.33333 -28.48956,0 -2.97287,0.42592 -5.57399,2.43123 -8.54687,2.85715 -3.76042,0.53874 -7.62654,-0.47252 -11.39582,0 -3.88528,0.48705 -7.51967,2.30181 -11.39583,2.85714 -2.82033,0.40406 -5.73667,-0.46971 -8.54687,0 -2.9622,0.49512 -5.60211,2.2665 -8.54687,2.85714 -1.86241,0.37356 -3.82444,-0.31314 -5.69791,0 -3.86224,0.64556 -7.51965,2.30182 -11.39582,2.85714 -5.64064,0.80813 -11.47336,-0.93942 -17.09373,0 -2.96221,0.49512 -5.60213,2.26651 -8.54687,2.85715 -3.72484,0.74711 -7.59722,0 -11.39583,0 -11.39582,0 -22.79165,0 -34.18748,0 -4.74825,0 -9.58872,-0.93389 -14.24477,0 -2.94475,0.59064 -5.60212,2.2665 -8.54687,2.85714 -4.86691,0.97618 -17.4535,0 -22.79164,0 -1.82078,0 -15.71916,-0.68927 -17.09374,0 -1.20123,0.60234 -1.57488,2.43122 -2.84896,2.85714 -3.06947,1.0261 -19.28641,0 -22.79166,0 -13.29511,0 -26.59024,0 -39.88538,0 -39.88538,0 -79.77077,0 -119.656161,0"
       id="path2995"
       inkscape:connector-curvature="0"
       inkscape:export-filename="/Users/pavel/Courses/COMP585/Final/assets/levels/start/1.png"
       inkscape:export-xdpi="157.5"
       inkscape:export-ydpi="157.5" />
    <rect
       style="fill:#ffffff;fill-opacity:0;fill-rule:evenodd;stroke:none;stroke-opacity:1"
       id="rect2997"
       width="571.42859"
       height="571.42859"
       x="105.71429"
       y="309.50504"
       inkscape:export-filename="/Users/pavel/Courses/COMP585/Final/assets/levels/start/1.png"
       inkscape:export-xdpi="157.5"
       inkscape:export-ydpi="157.5" />
  </g>
</svg>
